G04 #@! TF.FileFunction,Paste,Top*
%FSLAX46Y46*%
G04 Gerber Fmt 4.6, Leading zero omitted, Abs format (unit mm)*
G04 Created by KiCad (PCBNEW 4.0.2-stable) date 1/8/2017 12:15:52 AM*
%MOMM*%
G01*
G04 APERTURE LIST*
%ADD10C,0.100000*%
%ADD11R,1.348000X1.148000*%
%ADD12R,1.148000X1.348000*%
%ADD13R,1.648860X0.648100*%
%ADD14R,0.648100X1.648860*%
%ADD15R,2.548000X3.048000*%
G04 APERTURE END LIST*
D10*
G36*
X135526650Y-98194460D02*
X137673350Y-98194460D01*
X137073910Y-101644180D01*
X136126090Y-101644180D01*
X135526650Y-98194460D01*
X135526650Y-98194460D01*
G37*
G36*
X137673350Y-107445540D02*
X135526650Y-107445540D01*
X136126090Y-103995820D01*
X137073910Y-103995820D01*
X137673350Y-107445540D01*
X137673350Y-107445540D01*
G37*
G36*
X121425540Y-107746650D02*
X121425540Y-109893350D01*
X117975820Y-109293910D01*
X117975820Y-108346090D01*
X121425540Y-107746650D01*
X121425540Y-107746650D01*
G37*
G36*
X112174460Y-109893350D02*
X112174460Y-107746650D01*
X115624180Y-108346090D01*
X115624180Y-109293910D01*
X112174460Y-109893350D01*
X112174460Y-109893350D01*
G37*
D11*
X147150000Y-110020000D03*
X144450000Y-110020000D03*
D10*
G36*
X121425540Y-103746650D02*
X121425540Y-105893350D01*
X117975820Y-105293910D01*
X117975820Y-104346090D01*
X121425540Y-103746650D01*
X121425540Y-103746650D01*
G37*
G36*
X112174460Y-105893350D02*
X112174460Y-103746650D01*
X115624180Y-104346090D01*
X115624180Y-105293910D01*
X112174460Y-105893350D01*
X112174460Y-105893350D01*
G37*
D12*
X123800000Y-103470000D03*
X123800000Y-106170000D03*
D13*
X130298860Y-105270000D03*
X130298860Y-107170000D03*
X133301140Y-106220000D03*
X142701140Y-107770000D03*
X142701140Y-105870000D03*
X139698860Y-106820000D03*
D14*
X146750000Y-102918860D03*
X144850000Y-102918860D03*
X145800000Y-105921140D03*
D13*
X116301140Y-100570000D03*
X116301140Y-98670000D03*
X113298860Y-99620000D03*
X136098860Y-112670000D03*
X136098860Y-114570000D03*
X139101140Y-113620000D03*
X132898860Y-116470000D03*
X132898860Y-118370000D03*
X135901140Y-117420000D03*
X121501140Y-113370000D03*
X121501140Y-111470000D03*
X118498860Y-112420000D03*
D11*
X126050000Y-112220000D03*
X128750000Y-112220000D03*
X128750000Y-109770000D03*
X126050000Y-109770000D03*
X126250000Y-118020000D03*
X128950000Y-118020000D03*
D12*
X132600000Y-114170000D03*
X132600000Y-111470000D03*
D11*
X141750000Y-110020000D03*
X139050000Y-110020000D03*
D12*
X119600000Y-99070000D03*
X119600000Y-101770000D03*
D11*
X146950000Y-99620000D03*
X144250000Y-99620000D03*
X130250000Y-103220000D03*
X132950000Y-103220000D03*
D13*
X129101140Y-115970000D03*
X129101140Y-114070000D03*
X126098860Y-115020000D03*
D15*
X123850000Y-99620000D03*
X131750000Y-99620000D03*
M02*
