G04 #@! TF.FileFunction,Copper,L1,Top,Signal*
%FSLAX46Y46*%
G04 Gerber Fmt 4.6, Leading zero omitted, Abs format (unit mm)*
G04 Created by KiCad (PCBNEW 4.0.2-stable) date 9/21/2016 2:39:29 AM*
%MOMM*%
G01*
G04 APERTURE LIST*
%ADD10C,0.100000*%
%ADD11C,3.000000*%
%ADD12R,3.000000X3.000000*%
%ADD13R,1.500000X1.300000*%
%ADD14R,1.300000X1.500000*%
%ADD15R,2.032000X1.727200*%
%ADD16O,2.032000X1.727200*%
%ADD17R,1.800860X0.800100*%
%ADD18R,0.800100X1.800860*%
%ADD19R,2.700000X3.200000*%
%ADD20C,0.600000*%
%ADD21C,1.200000*%
%ADD22C,0.250000*%
%ADD23C,0.500000*%
%ADD24C,1.000000*%
%ADD25C,0.750000*%
G04 APERTURE END LIST*
D10*
D11*
X140750000Y-116840000D03*
D12*
X140750000Y-101600000D03*
D10*
G36*
X135450650Y-98118460D02*
X137749350Y-98118460D01*
X137149910Y-101720180D01*
X136050090Y-101720180D01*
X135450650Y-98118460D01*
X135450650Y-98118460D01*
G37*
G36*
X137749350Y-107521540D02*
X135450650Y-107521540D01*
X136050090Y-103919820D01*
X137149910Y-103919820D01*
X137749350Y-107521540D01*
X137749350Y-107521540D01*
G37*
G36*
X121501540Y-107670650D02*
X121501540Y-109969350D01*
X117899820Y-109369910D01*
X117899820Y-108270090D01*
X121501540Y-107670650D01*
X121501540Y-107670650D01*
G37*
G36*
X112098460Y-109969350D02*
X112098460Y-107670650D01*
X115700180Y-108270090D01*
X115700180Y-109369910D01*
X112098460Y-109969350D01*
X112098460Y-109969350D01*
G37*
D13*
X147150000Y-110020000D03*
X144450000Y-110020000D03*
D10*
G36*
X121501540Y-103670650D02*
X121501540Y-105969350D01*
X117899820Y-105369910D01*
X117899820Y-104270090D01*
X121501540Y-103670650D01*
X121501540Y-103670650D01*
G37*
G36*
X112098460Y-105969350D02*
X112098460Y-103670650D01*
X115700180Y-104270090D01*
X115700180Y-105369910D01*
X112098460Y-105969350D01*
X112098460Y-105969350D01*
G37*
D14*
X123800000Y-103470000D03*
X123800000Y-106170000D03*
D15*
X114800000Y-118300000D03*
D16*
X114800000Y-115760000D03*
X114800000Y-113220000D03*
D15*
X145200000Y-118360000D03*
D16*
X145200000Y-115820000D03*
X145200000Y-113280000D03*
D17*
X130298860Y-105270000D03*
X130298860Y-107170000D03*
X133301140Y-106220000D03*
X142701140Y-107770000D03*
X142701140Y-105870000D03*
X139698860Y-106820000D03*
D18*
X146750000Y-102918860D03*
X144850000Y-102918860D03*
X145800000Y-105921140D03*
D17*
X116301140Y-100570000D03*
X116301140Y-98670000D03*
X113298860Y-99620000D03*
X136098860Y-112670000D03*
X136098860Y-114570000D03*
X139101140Y-113620000D03*
X132898860Y-116470000D03*
X132898860Y-118370000D03*
X135901140Y-117420000D03*
X121501140Y-113370000D03*
X121501140Y-111470000D03*
X118498860Y-112420000D03*
D13*
X126050000Y-112220000D03*
X128750000Y-112220000D03*
X128750000Y-109770000D03*
X126050000Y-109770000D03*
X126250000Y-118020000D03*
X128950000Y-118020000D03*
D14*
X132600000Y-114170000D03*
X132600000Y-111470000D03*
D13*
X141750000Y-110020000D03*
X139050000Y-110020000D03*
D14*
X119600000Y-99070000D03*
X119600000Y-101770000D03*
D13*
X146950000Y-99620000D03*
X144250000Y-99620000D03*
X130250000Y-103220000D03*
X132950000Y-103220000D03*
D17*
X129101140Y-115970000D03*
X129101140Y-114070000D03*
X126098860Y-115020000D03*
D19*
X123850000Y-99620000D03*
X131750000Y-99620000D03*
D20*
X147200000Y-108620000D03*
X142800000Y-99420000D03*
X134400000Y-118420000D03*
X130800000Y-115020000D03*
X119600000Y-111020000D03*
X113800000Y-103420000D03*
X134200000Y-103220000D03*
D21*
X144800000Y-107144990D03*
X137800000Y-115220000D03*
D20*
X129950000Y-109770000D03*
X122200000Y-108820000D03*
X136000000Y-116420000D03*
X134700000Y-112670000D03*
X131400000Y-116620000D03*
X125200000Y-118020000D03*
X121600000Y-114420000D03*
D22*
X147150000Y-110020000D02*
X147150000Y-108670000D01*
X147150000Y-108670000D02*
X147200000Y-108620000D01*
X144250000Y-99620000D02*
X143000000Y-99620000D01*
X143000000Y-99620000D02*
X142800000Y-99420000D01*
X132898860Y-118370000D02*
X134350000Y-118370000D01*
X134350000Y-118370000D02*
X134400000Y-118420000D01*
X129101140Y-114070000D02*
X129850000Y-114070000D01*
X129850000Y-114070000D02*
X130800000Y-115020000D01*
X129000000Y-113370000D02*
X129051190Y-113370000D01*
X129051190Y-113370000D02*
X129101140Y-113419950D01*
X129101140Y-113419950D02*
X129101140Y-114070000D01*
X128750000Y-112220000D02*
X128750000Y-113120000D01*
X128750000Y-113120000D02*
X129000000Y-113370000D01*
X121501140Y-111470000D02*
X120050000Y-111470000D01*
X120050000Y-111470000D02*
X119600000Y-111020000D01*
X113899320Y-104820000D02*
X113899320Y-103519320D01*
X113899320Y-103519320D02*
X113800000Y-103420000D01*
D23*
X132950000Y-103220000D02*
X134200000Y-103220000D01*
D24*
X139600000Y-106220000D02*
X139698860Y-106318860D01*
D23*
X139698860Y-106318860D02*
X139698860Y-106820000D01*
D24*
X139600000Y-104500000D02*
X139600000Y-106220000D01*
X140750000Y-101600000D02*
X140750000Y-103350000D01*
X140750000Y-103350000D02*
X139600000Y-104500000D01*
D22*
X136600000Y-99919320D02*
X136899320Y-99919320D01*
D24*
X136899320Y-99919320D02*
X138600000Y-101620000D01*
X138600000Y-101620000D02*
X138620000Y-101600000D01*
X138620000Y-101600000D02*
X140750000Y-101600000D01*
X121450000Y-99070000D02*
X122000000Y-99620000D01*
X122000000Y-99620000D02*
X123850000Y-99620000D01*
X119600000Y-99070000D02*
X121450000Y-99070000D01*
D25*
X118650000Y-99070000D02*
X119600000Y-99070000D01*
X118250000Y-98670000D02*
X118650000Y-99070000D01*
X116301140Y-98670000D02*
X118250000Y-98670000D01*
D24*
X119700680Y-104820000D02*
X121800000Y-104820000D01*
X121800000Y-104820000D02*
X123150000Y-103470000D01*
X123150000Y-103470000D02*
X123800000Y-103470000D01*
X123850000Y-99620000D02*
X123850000Y-103420000D01*
X123850000Y-103420000D02*
X123800000Y-103470000D01*
D22*
X139050000Y-110020000D02*
X139050000Y-113568860D01*
X139050000Y-113568860D02*
X139101140Y-113620000D01*
D25*
X142000000Y-113620000D02*
X139101140Y-113620000D01*
D24*
X144200000Y-115820000D02*
X142000000Y-113620000D01*
X145200000Y-115820000D02*
X144200000Y-115820000D01*
D22*
X113298860Y-99620000D02*
X113298860Y-100270050D01*
X113298860Y-100270050D02*
X116600000Y-103571190D01*
X116600000Y-103571190D02*
X116600000Y-106119320D01*
X116600000Y-106119320D02*
X113899320Y-108820000D01*
D25*
X133301140Y-106220000D02*
X136100680Y-106220000D01*
D22*
X136100680Y-106220000D02*
X136600000Y-105720680D01*
D25*
X144800000Y-107144990D02*
X144800000Y-106921140D01*
X144800000Y-106921140D02*
X145800000Y-105921140D01*
X136950000Y-114570000D02*
X137600000Y-115220000D01*
X137600000Y-115220000D02*
X137800000Y-115220000D01*
X136098860Y-114570000D02*
X136950000Y-114570000D01*
D22*
X121600000Y-108820000D02*
X122200000Y-108820000D01*
X119700680Y-108820000D02*
X121600000Y-108820000D01*
X130800000Y-110620000D02*
X129950000Y-109770000D01*
X129950000Y-109770000D02*
X128750000Y-109770000D01*
X130800000Y-113270000D02*
X130800000Y-110620000D01*
X132600000Y-114170000D02*
X131700000Y-114170000D01*
X131700000Y-114170000D02*
X130800000Y-113270000D01*
X136098860Y-114570000D02*
X133000000Y-114570000D01*
X133000000Y-114570000D02*
X132600000Y-114170000D01*
X144450000Y-110020000D02*
X143450000Y-110020000D01*
X143450000Y-110020000D02*
X141750000Y-110020000D01*
D24*
X123800000Y-114820000D02*
X123800000Y-106170000D01*
X122800000Y-115820000D02*
X123800000Y-114820000D01*
X115800000Y-115820000D02*
X122800000Y-115820000D01*
D22*
X115740000Y-115760000D02*
X115800000Y-115820000D01*
D24*
X114800000Y-115760000D02*
X115740000Y-115760000D01*
X114800000Y-118300000D02*
X117480000Y-118300000D01*
X117480000Y-118300000D02*
X119200000Y-120020000D01*
X119200000Y-120020000D02*
X143400000Y-120020000D01*
D22*
X143400000Y-120020000D02*
X143400000Y-120007600D01*
D24*
X143400000Y-120007600D02*
X145047600Y-118360000D01*
D22*
X145047600Y-118360000D02*
X145200000Y-118360000D01*
D23*
X130250000Y-103220000D02*
X130250000Y-105221140D01*
D22*
X130250000Y-105221140D02*
X130298860Y-105270000D01*
D25*
X130298860Y-107170000D02*
X129148430Y-107170000D01*
D24*
X128200000Y-106221570D02*
X128200000Y-102020000D01*
X129148430Y-107170000D02*
X128200000Y-106221570D01*
X128200000Y-102020000D02*
X130600000Y-99620000D01*
X130600000Y-99620000D02*
X131750000Y-99620000D01*
D22*
X146750000Y-107870000D02*
X146200000Y-108420000D01*
X146750000Y-102918860D02*
X146750000Y-107870000D01*
X143800000Y-108420000D02*
X146200000Y-108420000D01*
X143150000Y-107770000D02*
X143800000Y-108420000D01*
X142701140Y-107770000D02*
X143150000Y-107770000D01*
X146950000Y-99620000D02*
X146950000Y-102718860D01*
X146950000Y-102718860D02*
X146750000Y-102918860D01*
D25*
X143901140Y-102918860D02*
X142701140Y-104118860D01*
X142701140Y-104118860D02*
X142701140Y-105870000D01*
X144850000Y-102918860D02*
X143901140Y-102918860D01*
D22*
X118498860Y-111518860D02*
X118498860Y-112420000D01*
X116301140Y-100570000D02*
X116301140Y-101220050D01*
X117050010Y-103384790D02*
X117050010Y-110070010D01*
X116301140Y-101220050D02*
X117000000Y-101918910D01*
X117000000Y-101918910D02*
X117000000Y-103334780D01*
X117000000Y-103334780D02*
X117050010Y-103384790D01*
X117050010Y-110070010D02*
X118498860Y-111518860D01*
X118600000Y-101620000D02*
X118600000Y-101670000D01*
X118600000Y-101670000D02*
X118700000Y-101770000D01*
X118700000Y-101770000D02*
X119600000Y-101770000D01*
X117550000Y-100570000D02*
X118600000Y-101620000D01*
X116301140Y-100570000D02*
X117550000Y-100570000D01*
X136000000Y-116420000D02*
X136000000Y-117321140D01*
X136000000Y-117321140D02*
X135901140Y-117420000D01*
X132600000Y-111470000D02*
X133500000Y-111470000D01*
X133500000Y-111470000D02*
X134700000Y-112670000D01*
X134700000Y-112670000D02*
X134948430Y-112670000D01*
X134948430Y-112670000D02*
X136098860Y-112670000D01*
X131400000Y-116620000D02*
X132748860Y-116620000D01*
X132748860Y-116620000D02*
X132898860Y-116470000D01*
X125200000Y-118020000D02*
X126250000Y-118020000D01*
X121501140Y-113370000D02*
X121501140Y-114321140D01*
X121501140Y-114321140D02*
X121600000Y-114420000D01*
X126050000Y-112220000D02*
X126050000Y-114971140D01*
X126050000Y-114971140D02*
X126098860Y-115020000D01*
X126050000Y-109770000D02*
X126050000Y-112220000D01*
X129101140Y-115970000D02*
X129101140Y-117868860D01*
X129101140Y-117868860D02*
X128950000Y-118020000D01*
M02*
