M48
;DRILL file {KiCad 4.0.2-stable} date 9/21/2016 2:39:02 AM
;FORMAT={-:-/ absolute / metric / decimal}
FMAT,2
METRIC,TZ
T1C0.400
T2C0.600
T3C0.800
T4C1.016
%
G90
G05
M71
T1
X113.8Y-103.42
X119.6Y-111.02
X121.6Y-114.42
X122.2Y-108.82
X125.2Y-118.02
X129.95Y-109.77
X130.8Y-115.02
X131.4Y-116.62
X134.2Y-103.22
X134.4Y-118.42
X134.7Y-112.67
X136.Y-116.42
X142.8Y-99.42
X147.2Y-108.62
T2
X137.8Y-115.22
X144.8Y-107.145
T3
X140.75Y-101.6
X140.75Y-116.84
T4
X114.8Y-113.22
X114.8Y-115.76
X114.8Y-118.3
X145.2Y-113.28
X145.2Y-115.82
X145.2Y-118.36
T0
M30
