G04 #@! TF.FileFunction,Drawing*
%FSLAX46Y46*%
G04 Gerber Fmt 4.6, Leading zero omitted, Abs format (unit mm)*
G04 Created by KiCad (PCBNEW 4.0.2-stable) date 9/21/2016 2:39:29 AM*
%MOMM*%
G01*
G04 APERTURE LIST*
%ADD10C,0.100000*%
%ADD11C,0.300000*%
%ADD12C,0.200000*%
G04 APERTURE END LIST*
D10*
D11*
X99771429Y-115434285D02*
X99700000Y-115362856D01*
X99628571Y-115219999D01*
X99628571Y-114862856D01*
X99700000Y-114719999D01*
X99771429Y-114648570D01*
X99914286Y-114577142D01*
X100057143Y-114577142D01*
X100271429Y-114648570D01*
X101128571Y-115505713D01*
X101128571Y-114577142D01*
X100128571Y-113291428D02*
X101128571Y-113291428D01*
X99557143Y-113648571D02*
X100628571Y-114005714D01*
X100628571Y-113077142D01*
X100985714Y-112505714D02*
X101057143Y-112434286D01*
X101128571Y-112505714D01*
X101057143Y-112577143D01*
X100985714Y-112505714D01*
X101128571Y-112505714D01*
X99628571Y-111505714D02*
X99628571Y-111362857D01*
X99700000Y-111220000D01*
X99771429Y-111148571D01*
X99914286Y-111077142D01*
X100200000Y-111005714D01*
X100557143Y-111005714D01*
X100842857Y-111077142D01*
X100985714Y-111148571D01*
X101057143Y-111220000D01*
X101128571Y-111362857D01*
X101128571Y-111505714D01*
X101057143Y-111648571D01*
X100985714Y-111720000D01*
X100842857Y-111791428D01*
X100557143Y-111862857D01*
X100200000Y-111862857D01*
X99914286Y-111791428D01*
X99771429Y-111720000D01*
X99700000Y-111648571D01*
X99628571Y-111505714D01*
X99628571Y-110077143D02*
X99628571Y-109934286D01*
X99700000Y-109791429D01*
X99771429Y-109720000D01*
X99914286Y-109648571D01*
X100200000Y-109577143D01*
X100557143Y-109577143D01*
X100842857Y-109648571D01*
X100985714Y-109720000D01*
X101057143Y-109791429D01*
X101128571Y-109934286D01*
X101128571Y-110077143D01*
X101057143Y-110220000D01*
X100985714Y-110291429D01*
X100842857Y-110362857D01*
X100557143Y-110434286D01*
X100200000Y-110434286D01*
X99914286Y-110362857D01*
X99771429Y-110291429D01*
X99700000Y-110220000D01*
X99628571Y-110077143D01*
X99628571Y-108648572D02*
X99628571Y-108505715D01*
X99700000Y-108362858D01*
X99771429Y-108291429D01*
X99914286Y-108220000D01*
X100200000Y-108148572D01*
X100557143Y-108148572D01*
X100842857Y-108220000D01*
X100985714Y-108291429D01*
X101057143Y-108362858D01*
X101128571Y-108505715D01*
X101128571Y-108648572D01*
X101057143Y-108791429D01*
X100985714Y-108862858D01*
X100842857Y-108934286D01*
X100557143Y-109005715D01*
X100200000Y-109005715D01*
X99914286Y-108934286D01*
X99771429Y-108862858D01*
X99700000Y-108791429D01*
X99628571Y-108648572D01*
X101128571Y-106362858D02*
X100128571Y-106362858D01*
X100271429Y-106362858D02*
X100200000Y-106291430D01*
X100128571Y-106148572D01*
X100128571Y-105934287D01*
X100200000Y-105791430D01*
X100342857Y-105720001D01*
X101128571Y-105720001D01*
X100342857Y-105720001D02*
X100200000Y-105648572D01*
X100128571Y-105505715D01*
X100128571Y-105291430D01*
X100200000Y-105148572D01*
X100342857Y-105077144D01*
X101128571Y-105077144D01*
X101128571Y-104362858D02*
X100128571Y-104362858D01*
X100271429Y-104362858D02*
X100200000Y-104291430D01*
X100128571Y-104148572D01*
X100128571Y-103934287D01*
X100200000Y-103791430D01*
X100342857Y-103720001D01*
X101128571Y-103720001D01*
X100342857Y-103720001D02*
X100200000Y-103648572D01*
X100128571Y-103505715D01*
X100128571Y-103291430D01*
X100200000Y-103148572D01*
X100342857Y-103077144D01*
X101128571Y-103077144D01*
X101800000Y-121220000D02*
X101800000Y-97220000D01*
X111000000Y-121220000D02*
X99100000Y-121220000D01*
X111000000Y-97220000D02*
X99100000Y-97220000D01*
X101800000Y-97220000D02*
X102386421Y-98346504D01*
X101800000Y-97220000D02*
X101213579Y-98346504D01*
X101800000Y-121220000D02*
X102386421Y-120093496D01*
X101800000Y-121220000D02*
X101213579Y-120093496D01*
X123714287Y-89048571D02*
X124642858Y-89048571D01*
X124142858Y-89620000D01*
X124357144Y-89620000D01*
X124500001Y-89691429D01*
X124571430Y-89762857D01*
X124642858Y-89905714D01*
X124642858Y-90262857D01*
X124571430Y-90405714D01*
X124500001Y-90477143D01*
X124357144Y-90548571D01*
X123928572Y-90548571D01*
X123785715Y-90477143D01*
X123714287Y-90405714D01*
X125500001Y-89691429D02*
X125357143Y-89620000D01*
X125285715Y-89548571D01*
X125214286Y-89405714D01*
X125214286Y-89334286D01*
X125285715Y-89191429D01*
X125357143Y-89120000D01*
X125500001Y-89048571D01*
X125785715Y-89048571D01*
X125928572Y-89120000D01*
X126000001Y-89191429D01*
X126071429Y-89334286D01*
X126071429Y-89405714D01*
X126000001Y-89548571D01*
X125928572Y-89620000D01*
X125785715Y-89691429D01*
X125500001Y-89691429D01*
X125357143Y-89762857D01*
X125285715Y-89834286D01*
X125214286Y-89977143D01*
X125214286Y-90262857D01*
X125285715Y-90405714D01*
X125357143Y-90477143D01*
X125500001Y-90548571D01*
X125785715Y-90548571D01*
X125928572Y-90477143D01*
X126000001Y-90405714D01*
X126071429Y-90262857D01*
X126071429Y-89977143D01*
X126000001Y-89834286D01*
X125928572Y-89762857D01*
X125785715Y-89691429D01*
X126714286Y-90405714D02*
X126785714Y-90477143D01*
X126714286Y-90548571D01*
X126642857Y-90477143D01*
X126714286Y-90405714D01*
X126714286Y-90548571D01*
X127714286Y-89048571D02*
X127857143Y-89048571D01*
X128000000Y-89120000D01*
X128071429Y-89191429D01*
X128142858Y-89334286D01*
X128214286Y-89620000D01*
X128214286Y-89977143D01*
X128142858Y-90262857D01*
X128071429Y-90405714D01*
X128000000Y-90477143D01*
X127857143Y-90548571D01*
X127714286Y-90548571D01*
X127571429Y-90477143D01*
X127500000Y-90405714D01*
X127428572Y-90262857D01*
X127357143Y-89977143D01*
X127357143Y-89620000D01*
X127428572Y-89334286D01*
X127500000Y-89191429D01*
X127571429Y-89120000D01*
X127714286Y-89048571D01*
X129142857Y-89048571D02*
X129285714Y-89048571D01*
X129428571Y-89120000D01*
X129500000Y-89191429D01*
X129571429Y-89334286D01*
X129642857Y-89620000D01*
X129642857Y-89977143D01*
X129571429Y-90262857D01*
X129500000Y-90405714D01*
X129428571Y-90477143D01*
X129285714Y-90548571D01*
X129142857Y-90548571D01*
X129000000Y-90477143D01*
X128928571Y-90405714D01*
X128857143Y-90262857D01*
X128785714Y-89977143D01*
X128785714Y-89620000D01*
X128857143Y-89334286D01*
X128928571Y-89191429D01*
X129000000Y-89120000D01*
X129142857Y-89048571D01*
X130571428Y-89048571D02*
X130714285Y-89048571D01*
X130857142Y-89120000D01*
X130928571Y-89191429D01*
X131000000Y-89334286D01*
X131071428Y-89620000D01*
X131071428Y-89977143D01*
X131000000Y-90262857D01*
X130928571Y-90405714D01*
X130857142Y-90477143D01*
X130714285Y-90548571D01*
X130571428Y-90548571D01*
X130428571Y-90477143D01*
X130357142Y-90405714D01*
X130285714Y-90262857D01*
X130214285Y-89977143D01*
X130214285Y-89620000D01*
X130285714Y-89334286D01*
X130357142Y-89191429D01*
X130428571Y-89120000D01*
X130571428Y-89048571D01*
X132857142Y-90548571D02*
X132857142Y-89548571D01*
X132857142Y-89691429D02*
X132928570Y-89620000D01*
X133071428Y-89548571D01*
X133285713Y-89548571D01*
X133428570Y-89620000D01*
X133499999Y-89762857D01*
X133499999Y-90548571D01*
X133499999Y-89762857D02*
X133571428Y-89620000D01*
X133714285Y-89548571D01*
X133928570Y-89548571D01*
X134071428Y-89620000D01*
X134142856Y-89762857D01*
X134142856Y-90548571D01*
X134857142Y-90548571D02*
X134857142Y-89548571D01*
X134857142Y-89691429D02*
X134928570Y-89620000D01*
X135071428Y-89548571D01*
X135285713Y-89548571D01*
X135428570Y-89620000D01*
X135499999Y-89762857D01*
X135499999Y-90548571D01*
X135499999Y-89762857D02*
X135571428Y-89620000D01*
X135714285Y-89548571D01*
X135928570Y-89548571D01*
X136071428Y-89620000D01*
X136142856Y-89762857D01*
X136142856Y-90548571D01*
X111000000Y-91220000D02*
X149000000Y-91220000D01*
X111000000Y-97220000D02*
X111000000Y-88520000D01*
X149000000Y-97220000D02*
X149000000Y-88520000D01*
X149000000Y-91220000D02*
X147873496Y-91806421D01*
X149000000Y-91220000D02*
X147873496Y-90633579D01*
X111000000Y-91220000D02*
X112126504Y-91806421D01*
X111000000Y-91220000D02*
X112126504Y-90633579D01*
D12*
X149000000Y-121220000D02*
X111000000Y-121220000D01*
X149000000Y-97220000D02*
X149000000Y-121220000D01*
X111000000Y-97220000D02*
X149000000Y-97220000D01*
X111000000Y-121220000D02*
X111000000Y-97220000D01*
M02*
