G04 #@! TF.FileFunction,Legend,Top*
%FSLAX46Y46*%
G04 Gerber Fmt 4.6, Leading zero omitted, Abs format (unit mm)*
G04 Created by KiCad (PCBNEW 4.0.2-stable) date 9/21/2016 2:39:29 AM*
%MOMM*%
G01*
G04 APERTURE LIST*
%ADD10C,0.100000*%
%ADD11C,0.150000*%
%ADD12C,0.075000*%
%ADD13C,0.002540*%
%ADD14C,3.400000*%
%ADD15R,3.400000X3.400000*%
%ADD16R,1.900000X1.700000*%
%ADD17R,1.700000X1.900000*%
%ADD18R,2.432000X2.127200*%
%ADD19O,2.432000X2.127200*%
%ADD20R,2.200860X1.200100*%
%ADD21R,1.200100X2.200860*%
%ADD22R,3.100000X3.600000*%
G04 APERTURE END LIST*
D10*
D11*
X136600000Y-102320420D02*
X137301040Y-103270380D01*
X137301040Y-103270380D02*
X135898960Y-103270380D01*
X135898960Y-103270380D02*
X136600000Y-102320420D01*
X137301040Y-102320420D02*
X135898960Y-102320420D01*
X135200460Y-100569560D02*
X135350320Y-100569560D01*
X137999540Y-100569560D02*
X137849680Y-100569560D01*
X135200460Y-101020860D02*
X135401120Y-101020860D01*
X135251260Y-105070440D02*
X135350320Y-105070440D01*
X137948740Y-101020860D02*
X137798880Y-101020860D01*
X137999540Y-105070440D02*
X137849680Y-105070440D01*
X134849940Y-101020860D02*
X135200460Y-101020860D01*
X138350060Y-101020860D02*
X137999540Y-101020860D01*
X134849940Y-105070440D02*
X135200460Y-105070440D01*
X134849940Y-100569560D02*
X135200460Y-100569560D01*
X138350060Y-100569560D02*
X137999540Y-100569560D01*
X138350060Y-105070440D02*
X137999540Y-105070440D01*
X134849940Y-100569560D02*
X134849940Y-105070440D01*
X138350060Y-100569560D02*
X138350060Y-105070440D01*
X117299580Y-108820000D02*
X116349620Y-109521040D01*
X116349620Y-109521040D02*
X116349620Y-108118960D01*
X116349620Y-108118960D02*
X117299580Y-108820000D01*
X117299580Y-109521040D02*
X117299580Y-108118960D01*
X119050440Y-107420460D02*
X119050440Y-107570320D01*
X119050440Y-110219540D02*
X119050440Y-110069680D01*
X118599140Y-107420460D02*
X118599140Y-107621120D01*
X114549560Y-107471260D02*
X114549560Y-107570320D01*
X118599140Y-110168740D02*
X118599140Y-110018880D01*
X114549560Y-110219540D02*
X114549560Y-110069680D01*
X118599140Y-107069940D02*
X118599140Y-107420460D01*
X118599140Y-110570060D02*
X118599140Y-110219540D01*
X114549560Y-107069940D02*
X114549560Y-107420460D01*
X119050440Y-107069940D02*
X119050440Y-107420460D01*
X119050440Y-110570060D02*
X119050440Y-110219540D01*
X114549560Y-110570060D02*
X114549560Y-110219540D01*
X119050440Y-107069940D02*
X114549560Y-107069940D01*
X119050440Y-110570060D02*
X114549560Y-110570060D01*
X145200000Y-109145000D02*
X146400000Y-109145000D01*
X146400000Y-110895000D02*
X145200000Y-110895000D01*
X117299580Y-104820000D02*
X116349620Y-105521040D01*
X116349620Y-105521040D02*
X116349620Y-104118960D01*
X116349620Y-104118960D02*
X117299580Y-104820000D01*
X117299580Y-105521040D02*
X117299580Y-104118960D01*
X119050440Y-103420460D02*
X119050440Y-103570320D01*
X119050440Y-106219540D02*
X119050440Y-106069680D01*
X118599140Y-103420460D02*
X118599140Y-103621120D01*
X114549560Y-103471260D02*
X114549560Y-103570320D01*
X118599140Y-106168740D02*
X118599140Y-106018880D01*
X114549560Y-106219540D02*
X114549560Y-106069680D01*
X118599140Y-103069940D02*
X118599140Y-103420460D01*
X118599140Y-106570060D02*
X118599140Y-106219540D01*
X114549560Y-103069940D02*
X114549560Y-103420460D01*
X119050440Y-103069940D02*
X119050440Y-103420460D01*
X119050440Y-106570060D02*
X119050440Y-106219540D01*
X114549560Y-106570060D02*
X114549560Y-106219540D01*
X119050440Y-103069940D02*
X114549560Y-103069940D01*
X119050440Y-106570060D02*
X114549560Y-106570060D01*
X122925000Y-105420000D02*
X122925000Y-104220000D01*
X124675000Y-104220000D02*
X124675000Y-105420000D01*
X116100000Y-119850000D02*
X116100000Y-118300000D01*
X114800000Y-119850000D02*
X116100000Y-119850000D01*
X110609000Y-118427000D02*
X104767000Y-118427000D01*
X104767000Y-118427000D02*
X104767000Y-118173000D01*
X104767000Y-118173000D02*
X110609000Y-118173000D01*
X110609000Y-118173000D02*
X110609000Y-118300000D01*
X110609000Y-118300000D02*
X104767000Y-118300000D01*
X113276000Y-118554000D02*
X113657000Y-118554000D01*
X113276000Y-118046000D02*
X113657000Y-118046000D01*
X113276000Y-116014000D02*
X113657000Y-116014000D01*
X113276000Y-115506000D02*
X113657000Y-115506000D01*
X113276000Y-113474000D02*
X113657000Y-113474000D01*
X113276000Y-112966000D02*
X113657000Y-112966000D01*
X110736000Y-117030000D02*
X110736000Y-119570000D01*
X104640000Y-118046000D02*
X110736000Y-118046000D01*
X104640000Y-118554000D02*
X104640000Y-118046000D01*
X110736000Y-118554000D02*
X104640000Y-118554000D01*
X113276000Y-117030000D02*
X110736000Y-117030000D01*
X113276000Y-119570000D02*
X113276000Y-117030000D01*
X113276000Y-119570000D02*
X110736000Y-119570000D01*
X113276000Y-114490000D02*
X110736000Y-114490000D01*
X113276000Y-114490000D02*
X113276000Y-111950000D01*
X110736000Y-113474000D02*
X104640000Y-113474000D01*
X104640000Y-113474000D02*
X104640000Y-112966000D01*
X104640000Y-112966000D02*
X110736000Y-112966000D01*
X110736000Y-111950000D02*
X110736000Y-114490000D01*
X110736000Y-114490000D02*
X110736000Y-117030000D01*
X104640000Y-115506000D02*
X110736000Y-115506000D01*
X104640000Y-116014000D02*
X104640000Y-115506000D01*
X110736000Y-116014000D02*
X104640000Y-116014000D01*
X113276000Y-114490000D02*
X110736000Y-114490000D01*
X113276000Y-117030000D02*
X113276000Y-114490000D01*
X113276000Y-117030000D02*
X110736000Y-117030000D01*
X113276000Y-111950000D02*
X110736000Y-111950000D01*
X131749200Y-104720180D02*
X132450240Y-104720180D01*
X132450240Y-104720180D02*
X132450240Y-104969100D01*
X132450240Y-107519160D02*
X132450240Y-107719820D01*
X132450240Y-107719820D02*
X131749200Y-107719820D01*
X141250800Y-108319820D02*
X140549760Y-108319820D01*
X140549760Y-108319820D02*
X140549760Y-108070900D01*
X140549760Y-105520840D02*
X140549760Y-105320180D01*
X140549760Y-105320180D02*
X141250800Y-105320180D01*
X147299820Y-104369200D02*
X147299820Y-105070240D01*
X147299820Y-105070240D02*
X147050900Y-105070240D01*
X144500840Y-105070240D02*
X144300180Y-105070240D01*
X144300180Y-105070240D02*
X144300180Y-104369200D01*
X114850800Y-101119820D02*
X114149760Y-101119820D01*
X114149760Y-101119820D02*
X114149760Y-100870900D01*
X114149760Y-98320840D02*
X114149760Y-98120180D01*
X114149760Y-98120180D02*
X114850800Y-98120180D01*
X137549200Y-112120180D02*
X138250240Y-112120180D01*
X138250240Y-112120180D02*
X138250240Y-112369100D01*
X138250240Y-114919160D02*
X138250240Y-115119820D01*
X138250240Y-115119820D02*
X137549200Y-115119820D01*
X134349200Y-115920180D02*
X135050240Y-115920180D01*
X135050240Y-115920180D02*
X135050240Y-116169100D01*
X135050240Y-118719160D02*
X135050240Y-118919820D01*
X135050240Y-118919820D02*
X134349200Y-118919820D01*
X120050800Y-113919820D02*
X119349760Y-113919820D01*
X119349760Y-113919820D02*
X119349760Y-113670900D01*
X119349760Y-111120840D02*
X119349760Y-110920180D01*
X119349760Y-110920180D02*
X120050800Y-110920180D01*
X128000000Y-113095000D02*
X126800000Y-113095000D01*
X126800000Y-111345000D02*
X128000000Y-111345000D01*
X126800000Y-108895000D02*
X128000000Y-108895000D01*
X128000000Y-110645000D02*
X126800000Y-110645000D01*
X128200000Y-118895000D02*
X127000000Y-118895000D01*
X127000000Y-117145000D02*
X128200000Y-117145000D01*
X133475000Y-112220000D02*
X133475000Y-113420000D01*
X131725000Y-113420000D02*
X131725000Y-112220000D01*
X139800000Y-109145000D02*
X141000000Y-109145000D01*
X141000000Y-110895000D02*
X139800000Y-110895000D01*
X118725000Y-101020000D02*
X118725000Y-99820000D01*
X120475000Y-99820000D02*
X120475000Y-101020000D01*
X145000000Y-98745000D02*
X146200000Y-98745000D01*
X146200000Y-100495000D02*
X145000000Y-100495000D01*
X132200000Y-104095000D02*
X131000000Y-104095000D01*
X131000000Y-102345000D02*
X132200000Y-102345000D01*
X127650800Y-116519820D02*
X126949760Y-116519820D01*
X126949760Y-116519820D02*
X126949760Y-116270900D01*
X126949760Y-113720840D02*
X126949760Y-113520180D01*
X126949760Y-113520180D02*
X127650800Y-113520180D01*
X130400000Y-101445000D02*
X125200000Y-101445000D01*
X125200000Y-97795000D02*
X130400000Y-97795000D01*
D12*
X123410000Y-120090000D02*
X123410000Y-120550000D01*
X123500000Y-120090000D02*
X123550000Y-120090000D01*
X123450000Y-120120000D02*
X123500000Y-120090000D01*
X123430000Y-120140000D02*
X123450000Y-120120000D01*
X123410000Y-120210000D02*
X123430000Y-120140000D01*
X123850000Y-120550000D02*
X123900000Y-120520000D01*
X123750000Y-120550000D02*
X123850000Y-120550000D01*
X123710000Y-120520000D02*
X123750000Y-120550000D01*
X123690000Y-120450000D02*
X123710000Y-120520000D01*
X123690000Y-120180000D02*
X123690000Y-120450000D01*
X123720000Y-120120000D02*
X123690000Y-120180000D01*
X123760000Y-120090000D02*
X123720000Y-120120000D01*
X123860000Y-120090000D02*
X123760000Y-120090000D01*
X123900000Y-120130000D02*
X123860000Y-120090000D01*
X123920000Y-120200000D02*
X123900000Y-120130000D01*
X123920000Y-120320000D02*
X123920000Y-120200000D01*
X123920000Y-120320000D02*
X123690000Y-120320000D01*
X123170000Y-120180000D02*
X123170000Y-120550000D01*
X123140000Y-120120000D02*
X123170000Y-120180000D01*
X123100000Y-120090000D02*
X123140000Y-120120000D01*
X123000000Y-120090000D02*
X123100000Y-120090000D01*
X122950000Y-120120000D02*
X123000000Y-120090000D01*
X123010000Y-120280000D02*
X122960000Y-120310000D01*
X123130000Y-120280000D02*
X123010000Y-120280000D01*
X123170000Y-120250000D02*
X123130000Y-120280000D01*
X123120000Y-120550000D02*
X123170000Y-120510000D01*
X123000000Y-120550000D02*
X123120000Y-120550000D01*
X122950000Y-120510000D02*
X123000000Y-120550000D01*
X122930000Y-120450000D02*
X122950000Y-120510000D01*
X122930000Y-120380000D02*
X122930000Y-120450000D01*
X122960000Y-120310000D02*
X122930000Y-120380000D01*
X122380000Y-120090000D02*
X122480000Y-120550000D01*
X122480000Y-120550000D02*
X122570000Y-120210000D01*
X122570000Y-120210000D02*
X122670000Y-120550000D01*
X122670000Y-120550000D02*
X122770000Y-120090000D01*
X122190000Y-120520000D02*
X122150000Y-120550000D01*
X122150000Y-120550000D02*
X122040000Y-120550000D01*
X122040000Y-120550000D02*
X122000000Y-120520000D01*
X122000000Y-120520000D02*
X121980000Y-120490000D01*
X121980000Y-120490000D02*
X121950000Y-120420000D01*
X121950000Y-120420000D02*
X121950000Y-120220000D01*
X121950000Y-120220000D02*
X121980000Y-120150000D01*
X121980000Y-120150000D02*
X122000000Y-120120000D01*
X122000000Y-120120000D02*
X122060000Y-120080000D01*
X122060000Y-120080000D02*
X122130000Y-120080000D01*
X122130000Y-120080000D02*
X122190000Y-120120000D01*
X122190000Y-119850000D02*
X122190000Y-120550000D01*
X121670000Y-120210000D02*
X121690000Y-120140000D01*
X121690000Y-120140000D02*
X121710000Y-120120000D01*
X121710000Y-120120000D02*
X121760000Y-120090000D01*
X121760000Y-120090000D02*
X121810000Y-120090000D01*
X121670000Y-120090000D02*
X121670000Y-120550000D01*
X121220000Y-120310000D02*
X121190000Y-120380000D01*
X121190000Y-120380000D02*
X121190000Y-120450000D01*
X121190000Y-120450000D02*
X121210000Y-120510000D01*
X121210000Y-120510000D02*
X121260000Y-120550000D01*
X121260000Y-120550000D02*
X121380000Y-120550000D01*
X121380000Y-120550000D02*
X121430000Y-120510000D01*
X121430000Y-120250000D02*
X121390000Y-120280000D01*
X121390000Y-120280000D02*
X121270000Y-120280000D01*
X121270000Y-120280000D02*
X121220000Y-120310000D01*
X121210000Y-120120000D02*
X121260000Y-120090000D01*
X121260000Y-120090000D02*
X121360000Y-120090000D01*
X121360000Y-120090000D02*
X121400000Y-120120000D01*
X121400000Y-120120000D02*
X121430000Y-120180000D01*
X121430000Y-120180000D02*
X121430000Y-120550000D01*
X120760000Y-120160000D02*
X120780000Y-120120000D01*
X120780000Y-120120000D02*
X120830000Y-120090000D01*
X120830000Y-120090000D02*
X120910000Y-120090000D01*
X120910000Y-120090000D02*
X120950000Y-120120000D01*
X120950000Y-120120000D02*
X120970000Y-120180000D01*
X120970000Y-120180000D02*
X120970000Y-120550000D01*
X120760000Y-119850000D02*
X120760000Y-120550000D01*
X119710000Y-120320000D02*
X119480000Y-120320000D01*
X119930000Y-120150000D02*
X119950000Y-120120000D01*
X119950000Y-120120000D02*
X119990000Y-120090000D01*
X119990000Y-120090000D02*
X120080000Y-120090000D01*
X120080000Y-120090000D02*
X120120000Y-120120000D01*
X120120000Y-120120000D02*
X120140000Y-120180000D01*
X120140000Y-120180000D02*
X120140000Y-120550000D01*
X119930000Y-120090000D02*
X119930000Y-120550000D01*
X119710000Y-120320000D02*
X119710000Y-120200000D01*
X119710000Y-120200000D02*
X119690000Y-120130000D01*
X119690000Y-120130000D02*
X119650000Y-120090000D01*
X119650000Y-120090000D02*
X119550000Y-120090000D01*
X119550000Y-120090000D02*
X119510000Y-120120000D01*
X119510000Y-120120000D02*
X119480000Y-120180000D01*
X119480000Y-120180000D02*
X119480000Y-120450000D01*
X119480000Y-120450000D02*
X119500000Y-120520000D01*
X119500000Y-120520000D02*
X119540000Y-120550000D01*
X119540000Y-120550000D02*
X119640000Y-120550000D01*
X119640000Y-120550000D02*
X119690000Y-120520000D01*
X119050000Y-120120000D02*
X119090000Y-120090000D01*
X119090000Y-120090000D02*
X119190000Y-120090000D01*
X119190000Y-120090000D02*
X119230000Y-120120000D01*
X119230000Y-120120000D02*
X119260000Y-120150000D01*
X119260000Y-120150000D02*
X119280000Y-120210000D01*
X119280000Y-120210000D02*
X119280000Y-120430000D01*
X119280000Y-120430000D02*
X119260000Y-120490000D01*
X119260000Y-120490000D02*
X119240000Y-120520000D01*
X119240000Y-120520000D02*
X119200000Y-120550000D01*
X119200000Y-120550000D02*
X119100000Y-120550000D01*
X119100000Y-120550000D02*
X119050000Y-120520000D01*
X119050000Y-120790000D02*
X119050000Y-120090000D01*
X118740000Y-120090000D02*
X118660000Y-120090000D01*
X118660000Y-120090000D02*
X118620000Y-120120000D01*
X118620000Y-120120000D02*
X118600000Y-120150000D01*
X118600000Y-120150000D02*
X118570000Y-120220000D01*
X118660000Y-120550000D02*
X118740000Y-120550000D01*
X118740000Y-120550000D02*
X118790000Y-120520000D01*
X118790000Y-120520000D02*
X118810000Y-120490000D01*
X118810000Y-120490000D02*
X118830000Y-120420000D01*
X118830000Y-120420000D02*
X118830000Y-120220000D01*
X118830000Y-120220000D02*
X118810000Y-120160000D01*
X118810000Y-120160000D02*
X118790000Y-120130000D01*
X118790000Y-120130000D02*
X118740000Y-120090000D01*
X118570000Y-120220000D02*
X118570000Y-120420000D01*
X118570000Y-120420000D02*
X118590000Y-120480000D01*
X118590000Y-120480000D02*
X118610000Y-120510000D01*
X118610000Y-120510000D02*
X118660000Y-120550000D01*
D13*
G36*
X119736160Y-119715360D02*
X119761560Y-119700120D01*
X119819980Y-119664560D01*
X119903800Y-119608680D01*
X120002860Y-119542640D01*
X120101920Y-119476600D01*
X120183200Y-119423260D01*
X120239080Y-119385160D01*
X120264480Y-119372460D01*
X120277180Y-119377540D01*
X120322900Y-119400400D01*
X120391480Y-119435960D01*
X120432120Y-119456280D01*
X120493080Y-119481680D01*
X120526100Y-119489300D01*
X120531180Y-119479140D01*
X120554040Y-119430880D01*
X120589600Y-119349600D01*
X120635320Y-119240380D01*
X120691200Y-119113380D01*
X120747080Y-118978760D01*
X120805500Y-118839060D01*
X120861380Y-118704440D01*
X120909640Y-118585060D01*
X120950280Y-118488540D01*
X120975680Y-118419960D01*
X120985840Y-118392020D01*
X120983300Y-118384400D01*
X120950280Y-118353920D01*
X120896940Y-118313280D01*
X120777560Y-118216760D01*
X120660720Y-118071980D01*
X120589600Y-117906880D01*
X120566740Y-117721460D01*
X120587060Y-117551280D01*
X120653100Y-117388720D01*
X120767400Y-117241400D01*
X120907100Y-117132180D01*
X121069660Y-117063600D01*
X121250000Y-117040740D01*
X121422720Y-117061060D01*
X121590360Y-117127100D01*
X121737680Y-117238860D01*
X121801180Y-117309980D01*
X121887540Y-117459840D01*
X121935800Y-117617320D01*
X121940880Y-117657960D01*
X121933260Y-117833220D01*
X121882460Y-118003400D01*
X121788480Y-118153260D01*
X121658940Y-118277720D01*
X121643700Y-118287880D01*
X121585280Y-118333600D01*
X121544640Y-118364080D01*
X121514160Y-118389480D01*
X121737680Y-118927960D01*
X121773240Y-119011780D01*
X121834200Y-119159100D01*
X121887540Y-119286100D01*
X121930720Y-119387700D01*
X121961200Y-119453740D01*
X121973900Y-119481680D01*
X121973900Y-119484220D01*
X121994220Y-119486760D01*
X122034860Y-119471520D01*
X122111060Y-119435960D01*
X122159320Y-119410560D01*
X122217740Y-119382620D01*
X122243140Y-119372460D01*
X122266000Y-119385160D01*
X122319340Y-119420720D01*
X122400620Y-119474060D01*
X122497140Y-119537560D01*
X122588580Y-119601060D01*
X122672400Y-119656940D01*
X122733360Y-119695040D01*
X122763840Y-119712820D01*
X122768920Y-119712820D01*
X122794320Y-119697580D01*
X122842580Y-119656940D01*
X122916240Y-119588360D01*
X123020380Y-119484220D01*
X123035620Y-119468980D01*
X123121980Y-119382620D01*
X123190560Y-119308960D01*
X123236280Y-119258160D01*
X123254060Y-119235300D01*
X123254060Y-119235300D01*
X123238820Y-119204820D01*
X123200720Y-119143860D01*
X123144840Y-119057500D01*
X123076260Y-118958440D01*
X122898460Y-118699360D01*
X122994980Y-118455520D01*
X123025460Y-118379320D01*
X123063560Y-118290420D01*
X123091500Y-118224380D01*
X123106740Y-118196440D01*
X123132140Y-118186280D01*
X123200720Y-118171040D01*
X123297240Y-118150720D01*
X123411540Y-118130400D01*
X123523300Y-118110080D01*
X123622360Y-118089760D01*
X123693480Y-118077060D01*
X123726500Y-118069440D01*
X123734120Y-118064360D01*
X123741740Y-118049120D01*
X123744280Y-118016100D01*
X123746820Y-117955140D01*
X123749360Y-117861160D01*
X123749360Y-117721460D01*
X123749360Y-117706220D01*
X123746820Y-117576680D01*
X123744280Y-117470000D01*
X123741740Y-117403960D01*
X123736660Y-117376020D01*
X123736660Y-117376020D01*
X123706180Y-117368400D01*
X123635060Y-117353160D01*
X123536000Y-117335380D01*
X123416620Y-117312520D01*
X123409000Y-117309980D01*
X123292160Y-117287120D01*
X123193100Y-117266800D01*
X123121980Y-117251560D01*
X123094040Y-117241400D01*
X123086420Y-117233780D01*
X123063560Y-117188060D01*
X123030540Y-117114400D01*
X122989900Y-117025500D01*
X122951800Y-116931520D01*
X122918780Y-116847700D01*
X122895920Y-116786740D01*
X122888300Y-116758800D01*
X122890840Y-116756260D01*
X122908620Y-116728320D01*
X122949260Y-116667360D01*
X123005140Y-116583540D01*
X123073720Y-116481940D01*
X123078800Y-116474320D01*
X123147380Y-116375260D01*
X123203260Y-116288900D01*
X123238820Y-116230480D01*
X123254060Y-116202540D01*
X123254060Y-116200000D01*
X123231200Y-116169520D01*
X123180400Y-116113640D01*
X123106740Y-116037440D01*
X123020380Y-115948540D01*
X122992440Y-115923140D01*
X122893380Y-115826620D01*
X122827340Y-115765660D01*
X122784160Y-115732640D01*
X122763840Y-115725020D01*
X122763840Y-115725020D01*
X122733360Y-115742800D01*
X122669860Y-115783440D01*
X122586040Y-115841860D01*
X122484440Y-115910440D01*
X122476820Y-115915520D01*
X122377760Y-115984100D01*
X122293940Y-116039980D01*
X122235520Y-116080620D01*
X122207580Y-116095860D01*
X122205040Y-116095860D01*
X122164400Y-116083160D01*
X122093280Y-116057760D01*
X122004380Y-116024740D01*
X121912940Y-115986640D01*
X121829120Y-115951080D01*
X121765620Y-115923140D01*
X121735140Y-115905360D01*
X121735140Y-115905360D01*
X121724980Y-115869800D01*
X121707200Y-115793600D01*
X121686880Y-115692000D01*
X121661480Y-115570080D01*
X121658940Y-115549760D01*
X121636080Y-115430380D01*
X121618300Y-115331320D01*
X121603060Y-115262740D01*
X121595440Y-115234800D01*
X121580200Y-115232260D01*
X121521780Y-115227180D01*
X121432880Y-115224640D01*
X121323660Y-115224640D01*
X121211900Y-115224640D01*
X121102680Y-115227180D01*
X121008700Y-115229720D01*
X120940120Y-115234800D01*
X120912180Y-115239880D01*
X120912180Y-115242420D01*
X120902020Y-115280520D01*
X120884240Y-115354180D01*
X120863920Y-115458320D01*
X120841060Y-115580240D01*
X120835980Y-115603100D01*
X120813120Y-115719940D01*
X120792800Y-115819000D01*
X120780100Y-115885040D01*
X120772480Y-115912980D01*
X120759780Y-115918060D01*
X120711520Y-115938380D01*
X120632780Y-115971400D01*
X120533720Y-116012040D01*
X120305120Y-116103480D01*
X120023180Y-115912980D01*
X119997780Y-115895200D01*
X119896180Y-115826620D01*
X119814900Y-115770740D01*
X119756480Y-115732640D01*
X119733620Y-115719940D01*
X119731080Y-115719940D01*
X119703140Y-115745340D01*
X119647260Y-115798680D01*
X119571060Y-115872340D01*
X119482160Y-115958700D01*
X119418660Y-116024740D01*
X119339920Y-116103480D01*
X119291660Y-116156820D01*
X119263720Y-116189840D01*
X119256100Y-116210160D01*
X119258640Y-116225400D01*
X119276420Y-116253340D01*
X119317060Y-116314300D01*
X119375480Y-116400660D01*
X119444060Y-116499720D01*
X119499940Y-116583540D01*
X119560900Y-116677520D01*
X119599000Y-116743560D01*
X119614240Y-116776580D01*
X119609160Y-116789280D01*
X119591380Y-116845160D01*
X119555820Y-116928980D01*
X119515180Y-117028040D01*
X119416120Y-117249020D01*
X119271340Y-117276960D01*
X119182440Y-117294740D01*
X119060520Y-117317600D01*
X118941140Y-117340460D01*
X118758260Y-117376020D01*
X118750640Y-118051660D01*
X118778580Y-118064360D01*
X118806520Y-118071980D01*
X118875100Y-118087220D01*
X118971620Y-118107540D01*
X119088460Y-118127860D01*
X119184980Y-118145640D01*
X119284040Y-118165960D01*
X119355160Y-118178660D01*
X119385640Y-118186280D01*
X119395800Y-118196440D01*
X119418660Y-118244700D01*
X119454220Y-118320900D01*
X119494860Y-118412340D01*
X119532960Y-118506320D01*
X119568520Y-118595220D01*
X119591380Y-118661260D01*
X119601540Y-118694280D01*
X119588840Y-118722220D01*
X119550740Y-118780640D01*
X119497400Y-118861920D01*
X119428820Y-118960980D01*
X119362780Y-119057500D01*
X119304360Y-119141320D01*
X119266260Y-119202280D01*
X119248480Y-119230220D01*
X119258640Y-119248000D01*
X119296740Y-119296260D01*
X119370400Y-119372460D01*
X119482160Y-119481680D01*
X119499940Y-119499460D01*
X119586300Y-119583280D01*
X119659960Y-119651860D01*
X119713300Y-119697580D01*
X119736160Y-119715360D01*
X119736160Y-119715360D01*
G37*
X119736160Y-119715360D02*
X119761560Y-119700120D01*
X119819980Y-119664560D01*
X119903800Y-119608680D01*
X120002860Y-119542640D01*
X120101920Y-119476600D01*
X120183200Y-119423260D01*
X120239080Y-119385160D01*
X120264480Y-119372460D01*
X120277180Y-119377540D01*
X120322900Y-119400400D01*
X120391480Y-119435960D01*
X120432120Y-119456280D01*
X120493080Y-119481680D01*
X120526100Y-119489300D01*
X120531180Y-119479140D01*
X120554040Y-119430880D01*
X120589600Y-119349600D01*
X120635320Y-119240380D01*
X120691200Y-119113380D01*
X120747080Y-118978760D01*
X120805500Y-118839060D01*
X120861380Y-118704440D01*
X120909640Y-118585060D01*
X120950280Y-118488540D01*
X120975680Y-118419960D01*
X120985840Y-118392020D01*
X120983300Y-118384400D01*
X120950280Y-118353920D01*
X120896940Y-118313280D01*
X120777560Y-118216760D01*
X120660720Y-118071980D01*
X120589600Y-117906880D01*
X120566740Y-117721460D01*
X120587060Y-117551280D01*
X120653100Y-117388720D01*
X120767400Y-117241400D01*
X120907100Y-117132180D01*
X121069660Y-117063600D01*
X121250000Y-117040740D01*
X121422720Y-117061060D01*
X121590360Y-117127100D01*
X121737680Y-117238860D01*
X121801180Y-117309980D01*
X121887540Y-117459840D01*
X121935800Y-117617320D01*
X121940880Y-117657960D01*
X121933260Y-117833220D01*
X121882460Y-118003400D01*
X121788480Y-118153260D01*
X121658940Y-118277720D01*
X121643700Y-118287880D01*
X121585280Y-118333600D01*
X121544640Y-118364080D01*
X121514160Y-118389480D01*
X121737680Y-118927960D01*
X121773240Y-119011780D01*
X121834200Y-119159100D01*
X121887540Y-119286100D01*
X121930720Y-119387700D01*
X121961200Y-119453740D01*
X121973900Y-119481680D01*
X121973900Y-119484220D01*
X121994220Y-119486760D01*
X122034860Y-119471520D01*
X122111060Y-119435960D01*
X122159320Y-119410560D01*
X122217740Y-119382620D01*
X122243140Y-119372460D01*
X122266000Y-119385160D01*
X122319340Y-119420720D01*
X122400620Y-119474060D01*
X122497140Y-119537560D01*
X122588580Y-119601060D01*
X122672400Y-119656940D01*
X122733360Y-119695040D01*
X122763840Y-119712820D01*
X122768920Y-119712820D01*
X122794320Y-119697580D01*
X122842580Y-119656940D01*
X122916240Y-119588360D01*
X123020380Y-119484220D01*
X123035620Y-119468980D01*
X123121980Y-119382620D01*
X123190560Y-119308960D01*
X123236280Y-119258160D01*
X123254060Y-119235300D01*
X123254060Y-119235300D01*
X123238820Y-119204820D01*
X123200720Y-119143860D01*
X123144840Y-119057500D01*
X123076260Y-118958440D01*
X122898460Y-118699360D01*
X122994980Y-118455520D01*
X123025460Y-118379320D01*
X123063560Y-118290420D01*
X123091500Y-118224380D01*
X123106740Y-118196440D01*
X123132140Y-118186280D01*
X123200720Y-118171040D01*
X123297240Y-118150720D01*
X123411540Y-118130400D01*
X123523300Y-118110080D01*
X123622360Y-118089760D01*
X123693480Y-118077060D01*
X123726500Y-118069440D01*
X123734120Y-118064360D01*
X123741740Y-118049120D01*
X123744280Y-118016100D01*
X123746820Y-117955140D01*
X123749360Y-117861160D01*
X123749360Y-117721460D01*
X123749360Y-117706220D01*
X123746820Y-117576680D01*
X123744280Y-117470000D01*
X123741740Y-117403960D01*
X123736660Y-117376020D01*
X123736660Y-117376020D01*
X123706180Y-117368400D01*
X123635060Y-117353160D01*
X123536000Y-117335380D01*
X123416620Y-117312520D01*
X123409000Y-117309980D01*
X123292160Y-117287120D01*
X123193100Y-117266800D01*
X123121980Y-117251560D01*
X123094040Y-117241400D01*
X123086420Y-117233780D01*
X123063560Y-117188060D01*
X123030540Y-117114400D01*
X122989900Y-117025500D01*
X122951800Y-116931520D01*
X122918780Y-116847700D01*
X122895920Y-116786740D01*
X122888300Y-116758800D01*
X122890840Y-116756260D01*
X122908620Y-116728320D01*
X122949260Y-116667360D01*
X123005140Y-116583540D01*
X123073720Y-116481940D01*
X123078800Y-116474320D01*
X123147380Y-116375260D01*
X123203260Y-116288900D01*
X123238820Y-116230480D01*
X123254060Y-116202540D01*
X123254060Y-116200000D01*
X123231200Y-116169520D01*
X123180400Y-116113640D01*
X123106740Y-116037440D01*
X123020380Y-115948540D01*
X122992440Y-115923140D01*
X122893380Y-115826620D01*
X122827340Y-115765660D01*
X122784160Y-115732640D01*
X122763840Y-115725020D01*
X122763840Y-115725020D01*
X122733360Y-115742800D01*
X122669860Y-115783440D01*
X122586040Y-115841860D01*
X122484440Y-115910440D01*
X122476820Y-115915520D01*
X122377760Y-115984100D01*
X122293940Y-116039980D01*
X122235520Y-116080620D01*
X122207580Y-116095860D01*
X122205040Y-116095860D01*
X122164400Y-116083160D01*
X122093280Y-116057760D01*
X122004380Y-116024740D01*
X121912940Y-115986640D01*
X121829120Y-115951080D01*
X121765620Y-115923140D01*
X121735140Y-115905360D01*
X121735140Y-115905360D01*
X121724980Y-115869800D01*
X121707200Y-115793600D01*
X121686880Y-115692000D01*
X121661480Y-115570080D01*
X121658940Y-115549760D01*
X121636080Y-115430380D01*
X121618300Y-115331320D01*
X121603060Y-115262740D01*
X121595440Y-115234800D01*
X121580200Y-115232260D01*
X121521780Y-115227180D01*
X121432880Y-115224640D01*
X121323660Y-115224640D01*
X121211900Y-115224640D01*
X121102680Y-115227180D01*
X121008700Y-115229720D01*
X120940120Y-115234800D01*
X120912180Y-115239880D01*
X120912180Y-115242420D01*
X120902020Y-115280520D01*
X120884240Y-115354180D01*
X120863920Y-115458320D01*
X120841060Y-115580240D01*
X120835980Y-115603100D01*
X120813120Y-115719940D01*
X120792800Y-115819000D01*
X120780100Y-115885040D01*
X120772480Y-115912980D01*
X120759780Y-115918060D01*
X120711520Y-115938380D01*
X120632780Y-115971400D01*
X120533720Y-116012040D01*
X120305120Y-116103480D01*
X120023180Y-115912980D01*
X119997780Y-115895200D01*
X119896180Y-115826620D01*
X119814900Y-115770740D01*
X119756480Y-115732640D01*
X119733620Y-115719940D01*
X119731080Y-115719940D01*
X119703140Y-115745340D01*
X119647260Y-115798680D01*
X119571060Y-115872340D01*
X119482160Y-115958700D01*
X119418660Y-116024740D01*
X119339920Y-116103480D01*
X119291660Y-116156820D01*
X119263720Y-116189840D01*
X119256100Y-116210160D01*
X119258640Y-116225400D01*
X119276420Y-116253340D01*
X119317060Y-116314300D01*
X119375480Y-116400660D01*
X119444060Y-116499720D01*
X119499940Y-116583540D01*
X119560900Y-116677520D01*
X119599000Y-116743560D01*
X119614240Y-116776580D01*
X119609160Y-116789280D01*
X119591380Y-116845160D01*
X119555820Y-116928980D01*
X119515180Y-117028040D01*
X119416120Y-117249020D01*
X119271340Y-117276960D01*
X119182440Y-117294740D01*
X119060520Y-117317600D01*
X118941140Y-117340460D01*
X118758260Y-117376020D01*
X118750640Y-118051660D01*
X118778580Y-118064360D01*
X118806520Y-118071980D01*
X118875100Y-118087220D01*
X118971620Y-118107540D01*
X119088460Y-118127860D01*
X119184980Y-118145640D01*
X119284040Y-118165960D01*
X119355160Y-118178660D01*
X119385640Y-118186280D01*
X119395800Y-118196440D01*
X119418660Y-118244700D01*
X119454220Y-118320900D01*
X119494860Y-118412340D01*
X119532960Y-118506320D01*
X119568520Y-118595220D01*
X119591380Y-118661260D01*
X119601540Y-118694280D01*
X119588840Y-118722220D01*
X119550740Y-118780640D01*
X119497400Y-118861920D01*
X119428820Y-118960980D01*
X119362780Y-119057500D01*
X119304360Y-119141320D01*
X119266260Y-119202280D01*
X119248480Y-119230220D01*
X119258640Y-119248000D01*
X119296740Y-119296260D01*
X119370400Y-119372460D01*
X119482160Y-119481680D01*
X119499940Y-119499460D01*
X119586300Y-119583280D01*
X119659960Y-119651860D01*
X119713300Y-119697580D01*
X119736160Y-119715360D01*
D11*
X139452381Y-99358095D02*
X138452381Y-99358095D01*
X138452381Y-99120000D01*
X138500000Y-98977142D01*
X138595238Y-98881904D01*
X138690476Y-98834285D01*
X138880952Y-98786666D01*
X139023810Y-98786666D01*
X139214286Y-98834285D01*
X139309524Y-98881904D01*
X139404762Y-98977142D01*
X139452381Y-99120000D01*
X139452381Y-99358095D01*
X139452381Y-97834285D02*
X139452381Y-98405714D01*
X139452381Y-98120000D02*
X138452381Y-98120000D01*
X138595238Y-98215238D01*
X138690476Y-98310476D01*
X138738095Y-98405714D01*
X135052381Y-99881905D02*
X134052381Y-99881905D01*
X135052381Y-99310476D02*
X134480952Y-99739048D01*
X134052381Y-99310476D02*
X134623810Y-99881905D01*
X134566667Y-107858095D02*
X134566667Y-107381904D01*
X134852381Y-107953333D02*
X133852381Y-107620000D01*
X134852381Y-107286666D01*
X112661905Y-111272381D02*
X112661905Y-110272381D01*
X112900000Y-110272381D01*
X113042858Y-110320000D01*
X113138096Y-110415238D01*
X113185715Y-110510476D01*
X113233334Y-110700952D01*
X113233334Y-110843810D01*
X113185715Y-111034286D01*
X113138096Y-111129524D01*
X113042858Y-111224762D01*
X112900000Y-111272381D01*
X112661905Y-111272381D01*
X113614286Y-110367619D02*
X113661905Y-110320000D01*
X113757143Y-110272381D01*
X113995239Y-110272381D01*
X114090477Y-110320000D01*
X114138096Y-110367619D01*
X114185715Y-110462857D01*
X114185715Y-110558095D01*
X114138096Y-110700952D01*
X113566667Y-111272381D01*
X114185715Y-111272381D01*
X119538095Y-107272381D02*
X119538095Y-106272381D01*
X120109524Y-107272381D02*
X119680952Y-106700952D01*
X120109524Y-106272381D02*
X119538095Y-106843810D01*
X113661905Y-106986667D02*
X114138096Y-106986667D01*
X113566667Y-107272381D02*
X113900000Y-106272381D01*
X114233334Y-107272381D01*
X142261905Y-112472381D02*
X142261905Y-111472381D01*
X142500000Y-111472381D01*
X142642858Y-111520000D01*
X142738096Y-111615238D01*
X142785715Y-111710476D01*
X142833334Y-111900952D01*
X142833334Y-112043810D01*
X142785715Y-112234286D01*
X142738096Y-112329524D01*
X142642858Y-112424762D01*
X142500000Y-112472381D01*
X142261905Y-112472381D01*
X143166667Y-111472381D02*
X143785715Y-111472381D01*
X143452381Y-111853333D01*
X143595239Y-111853333D01*
X143690477Y-111900952D01*
X143738096Y-111948571D01*
X143785715Y-112043810D01*
X143785715Y-112281905D01*
X143738096Y-112377143D01*
X143690477Y-112424762D01*
X143595239Y-112472381D01*
X143309524Y-112472381D01*
X143214286Y-112424762D01*
X143166667Y-112377143D01*
X112661905Y-102672381D02*
X112661905Y-101672381D01*
X112900000Y-101672381D01*
X113042858Y-101720000D01*
X113138096Y-101815238D01*
X113185715Y-101910476D01*
X113233334Y-102100952D01*
X113233334Y-102243810D01*
X113185715Y-102434286D01*
X113138096Y-102529524D01*
X113042858Y-102624762D01*
X112900000Y-102672381D01*
X112661905Y-102672381D01*
X114090477Y-102005714D02*
X114090477Y-102672381D01*
X113852381Y-101624762D02*
X113614286Y-102339048D01*
X114233334Y-102339048D01*
X119538095Y-107272381D02*
X119538095Y-106272381D01*
X120109524Y-107272381D02*
X119680952Y-106700952D01*
X120109524Y-106272381D02*
X119538095Y-106843810D01*
X113761905Y-106986667D02*
X114238096Y-106986667D01*
X113666667Y-107272381D02*
X114000000Y-106272381D01*
X114333334Y-107272381D01*
X125728571Y-105153333D02*
X125728571Y-105486667D01*
X126252381Y-105486667D02*
X125252381Y-105486667D01*
X125252381Y-105010476D01*
X126252381Y-104105714D02*
X126252381Y-104677143D01*
X126252381Y-104391429D02*
X125252381Y-104391429D01*
X125395238Y-104486667D01*
X125490476Y-104581905D01*
X125538095Y-104677143D01*
X116761905Y-116422381D02*
X116761905Y-115422381D01*
X117142858Y-115422381D01*
X117238096Y-115470000D01*
X117285715Y-115517619D01*
X117333334Y-115612857D01*
X117333334Y-115755714D01*
X117285715Y-115850952D01*
X117238096Y-115898571D01*
X117142858Y-115946190D01*
X116761905Y-115946190D01*
X118285715Y-116422381D02*
X117714286Y-116422381D01*
X118000000Y-116422381D02*
X118000000Y-115422381D01*
X117904762Y-115565238D01*
X117809524Y-115660476D01*
X117714286Y-115708095D01*
X127904762Y-106767619D02*
X127809524Y-106720000D01*
X127714286Y-106624762D01*
X127571429Y-106481905D01*
X127476190Y-106434286D01*
X127380952Y-106434286D01*
X127428571Y-106672381D02*
X127333333Y-106624762D01*
X127238095Y-106529524D01*
X127190476Y-106339048D01*
X127190476Y-106005714D01*
X127238095Y-105815238D01*
X127333333Y-105720000D01*
X127428571Y-105672381D01*
X127619048Y-105672381D01*
X127714286Y-105720000D01*
X127809524Y-105815238D01*
X127857143Y-106005714D01*
X127857143Y-106339048D01*
X127809524Y-106529524D01*
X127714286Y-106624762D01*
X127619048Y-106672381D01*
X127428571Y-106672381D01*
X128809524Y-106672381D02*
X128238095Y-106672381D01*
X128523809Y-106672381D02*
X128523809Y-105672381D01*
X128428571Y-105815238D01*
X128333333Y-105910476D01*
X128238095Y-105958095D01*
X139704762Y-104967619D02*
X139609524Y-104920000D01*
X139514286Y-104824762D01*
X139371429Y-104681905D01*
X139276190Y-104634286D01*
X139180952Y-104634286D01*
X139228571Y-104872381D02*
X139133333Y-104824762D01*
X139038095Y-104729524D01*
X138990476Y-104539048D01*
X138990476Y-104205714D01*
X139038095Y-104015238D01*
X139133333Y-103920000D01*
X139228571Y-103872381D01*
X139419048Y-103872381D01*
X139514286Y-103920000D01*
X139609524Y-104015238D01*
X139657143Y-104205714D01*
X139657143Y-104539048D01*
X139609524Y-104729524D01*
X139514286Y-104824762D01*
X139419048Y-104872381D01*
X139228571Y-104872381D01*
X140038095Y-103967619D02*
X140085714Y-103920000D01*
X140180952Y-103872381D01*
X140419048Y-103872381D01*
X140514286Y-103920000D01*
X140561905Y-103967619D01*
X140609524Y-104062857D01*
X140609524Y-104158095D01*
X140561905Y-104300952D01*
X139990476Y-104872381D01*
X140609524Y-104872381D01*
X147704762Y-106567619D02*
X147609524Y-106520000D01*
X147514286Y-106424762D01*
X147371429Y-106281905D01*
X147276190Y-106234286D01*
X147180952Y-106234286D01*
X147228571Y-106472381D02*
X147133333Y-106424762D01*
X147038095Y-106329524D01*
X146990476Y-106139048D01*
X146990476Y-105805714D01*
X147038095Y-105615238D01*
X147133333Y-105520000D01*
X147228571Y-105472381D01*
X147419048Y-105472381D01*
X147514286Y-105520000D01*
X147609524Y-105615238D01*
X147657143Y-105805714D01*
X147657143Y-106139048D01*
X147609524Y-106329524D01*
X147514286Y-106424762D01*
X147419048Y-106472381D01*
X147228571Y-106472381D01*
X147990476Y-105472381D02*
X148609524Y-105472381D01*
X148276190Y-105853333D01*
X148419048Y-105853333D01*
X148514286Y-105900952D01*
X148561905Y-105948571D01*
X148609524Y-106043810D01*
X148609524Y-106281905D01*
X148561905Y-106377143D01*
X148514286Y-106424762D01*
X148419048Y-106472381D01*
X148133333Y-106472381D01*
X148038095Y-106424762D01*
X147990476Y-106377143D01*
X112704762Y-98767619D02*
X112609524Y-98720000D01*
X112514286Y-98624762D01*
X112371429Y-98481905D01*
X112276190Y-98434286D01*
X112180952Y-98434286D01*
X112228571Y-98672381D02*
X112133333Y-98624762D01*
X112038095Y-98529524D01*
X111990476Y-98339048D01*
X111990476Y-98005714D01*
X112038095Y-97815238D01*
X112133333Y-97720000D01*
X112228571Y-97672381D01*
X112419048Y-97672381D01*
X112514286Y-97720000D01*
X112609524Y-97815238D01*
X112657143Y-98005714D01*
X112657143Y-98339048D01*
X112609524Y-98529524D01*
X112514286Y-98624762D01*
X112419048Y-98672381D01*
X112228571Y-98672381D01*
X113514286Y-98005714D02*
X113514286Y-98672381D01*
X113276190Y-97624762D02*
X113038095Y-98339048D01*
X113657143Y-98339048D01*
X139504762Y-112567619D02*
X139409524Y-112520000D01*
X139314286Y-112424762D01*
X139171429Y-112281905D01*
X139076190Y-112234286D01*
X138980952Y-112234286D01*
X139028571Y-112472381D02*
X138933333Y-112424762D01*
X138838095Y-112329524D01*
X138790476Y-112139048D01*
X138790476Y-111805714D01*
X138838095Y-111615238D01*
X138933333Y-111520000D01*
X139028571Y-111472381D01*
X139219048Y-111472381D01*
X139314286Y-111520000D01*
X139409524Y-111615238D01*
X139457143Y-111805714D01*
X139457143Y-112139048D01*
X139409524Y-112329524D01*
X139314286Y-112424762D01*
X139219048Y-112472381D01*
X139028571Y-112472381D01*
X140361905Y-111472381D02*
X139885714Y-111472381D01*
X139838095Y-111948571D01*
X139885714Y-111900952D01*
X139980952Y-111853333D01*
X140219048Y-111853333D01*
X140314286Y-111900952D01*
X140361905Y-111948571D01*
X140409524Y-112043810D01*
X140409524Y-112281905D01*
X140361905Y-112377143D01*
X140314286Y-112424762D01*
X140219048Y-112472381D01*
X139980952Y-112472381D01*
X139885714Y-112424762D01*
X139838095Y-112377143D01*
X136704762Y-119567619D02*
X136609524Y-119520000D01*
X136514286Y-119424762D01*
X136371429Y-119281905D01*
X136276190Y-119234286D01*
X136180952Y-119234286D01*
X136228571Y-119472381D02*
X136133333Y-119424762D01*
X136038095Y-119329524D01*
X135990476Y-119139048D01*
X135990476Y-118805714D01*
X136038095Y-118615238D01*
X136133333Y-118520000D01*
X136228571Y-118472381D01*
X136419048Y-118472381D01*
X136514286Y-118520000D01*
X136609524Y-118615238D01*
X136657143Y-118805714D01*
X136657143Y-119139048D01*
X136609524Y-119329524D01*
X136514286Y-119424762D01*
X136419048Y-119472381D01*
X136228571Y-119472381D01*
X137514286Y-118472381D02*
X137323809Y-118472381D01*
X137228571Y-118520000D01*
X137180952Y-118567619D01*
X137085714Y-118710476D01*
X137038095Y-118900952D01*
X137038095Y-119281905D01*
X137085714Y-119377143D01*
X137133333Y-119424762D01*
X137228571Y-119472381D01*
X137419048Y-119472381D01*
X137514286Y-119424762D01*
X137561905Y-119377143D01*
X137609524Y-119281905D01*
X137609524Y-119043810D01*
X137561905Y-118948571D01*
X137514286Y-118900952D01*
X137419048Y-118853333D01*
X137228571Y-118853333D01*
X137133333Y-118900952D01*
X137085714Y-118948571D01*
X137038095Y-119043810D01*
X117704762Y-114567619D02*
X117609524Y-114520000D01*
X117514286Y-114424762D01*
X117371429Y-114281905D01*
X117276190Y-114234286D01*
X117180952Y-114234286D01*
X117228571Y-114472381D02*
X117133333Y-114424762D01*
X117038095Y-114329524D01*
X116990476Y-114139048D01*
X116990476Y-113805714D01*
X117038095Y-113615238D01*
X117133333Y-113520000D01*
X117228571Y-113472381D01*
X117419048Y-113472381D01*
X117514286Y-113520000D01*
X117609524Y-113615238D01*
X117657143Y-113805714D01*
X117657143Y-114139048D01*
X117609524Y-114329524D01*
X117514286Y-114424762D01*
X117419048Y-114472381D01*
X117228571Y-114472381D01*
X117990476Y-113472381D02*
X118657143Y-113472381D01*
X118228571Y-114472381D01*
X123633334Y-112672381D02*
X123300000Y-112196190D01*
X123061905Y-112672381D02*
X123061905Y-111672381D01*
X123442858Y-111672381D01*
X123538096Y-111720000D01*
X123585715Y-111767619D01*
X123633334Y-111862857D01*
X123633334Y-112005714D01*
X123585715Y-112100952D01*
X123538096Y-112148571D01*
X123442858Y-112196190D01*
X123061905Y-112196190D01*
X124014286Y-111767619D02*
X124061905Y-111720000D01*
X124157143Y-111672381D01*
X124395239Y-111672381D01*
X124490477Y-111720000D01*
X124538096Y-111767619D01*
X124585715Y-111862857D01*
X124585715Y-111958095D01*
X124538096Y-112100952D01*
X123966667Y-112672381D01*
X124585715Y-112672381D01*
X123633334Y-110072381D02*
X123300000Y-109596190D01*
X123061905Y-110072381D02*
X123061905Y-109072381D01*
X123442858Y-109072381D01*
X123538096Y-109120000D01*
X123585715Y-109167619D01*
X123633334Y-109262857D01*
X123633334Y-109405714D01*
X123585715Y-109500952D01*
X123538096Y-109548571D01*
X123442858Y-109596190D01*
X123061905Y-109596190D01*
X123966667Y-109072381D02*
X124585715Y-109072381D01*
X124252381Y-109453333D01*
X124395239Y-109453333D01*
X124490477Y-109500952D01*
X124538096Y-109548571D01*
X124585715Y-109643810D01*
X124585715Y-109881905D01*
X124538096Y-109977143D01*
X124490477Y-110024762D01*
X124395239Y-110072381D01*
X124109524Y-110072381D01*
X124014286Y-110024762D01*
X123966667Y-109977143D01*
X126083334Y-120422381D02*
X125750000Y-119946190D01*
X125511905Y-120422381D02*
X125511905Y-119422381D01*
X125892858Y-119422381D01*
X125988096Y-119470000D01*
X126035715Y-119517619D01*
X126083334Y-119612857D01*
X126083334Y-119755714D01*
X126035715Y-119850952D01*
X125988096Y-119898571D01*
X125892858Y-119946190D01*
X125511905Y-119946190D01*
X126940477Y-119755714D02*
X126940477Y-120422381D01*
X126702381Y-119374762D02*
X126464286Y-120089048D01*
X127083334Y-120089048D01*
X132433334Y-110072381D02*
X132100000Y-109596190D01*
X131861905Y-110072381D02*
X131861905Y-109072381D01*
X132242858Y-109072381D01*
X132338096Y-109120000D01*
X132385715Y-109167619D01*
X132433334Y-109262857D01*
X132433334Y-109405714D01*
X132385715Y-109500952D01*
X132338096Y-109548571D01*
X132242858Y-109596190D01*
X131861905Y-109596190D01*
X133338096Y-109072381D02*
X132861905Y-109072381D01*
X132814286Y-109548571D01*
X132861905Y-109500952D01*
X132957143Y-109453333D01*
X133195239Y-109453333D01*
X133290477Y-109500952D01*
X133338096Y-109548571D01*
X133385715Y-109643810D01*
X133385715Y-109881905D01*
X133338096Y-109977143D01*
X133290477Y-110024762D01*
X133195239Y-110072381D01*
X132957143Y-110072381D01*
X132861905Y-110024762D01*
X132814286Y-109977143D01*
X136633334Y-110472381D02*
X136300000Y-109996190D01*
X136061905Y-110472381D02*
X136061905Y-109472381D01*
X136442858Y-109472381D01*
X136538096Y-109520000D01*
X136585715Y-109567619D01*
X136633334Y-109662857D01*
X136633334Y-109805714D01*
X136585715Y-109900952D01*
X136538096Y-109948571D01*
X136442858Y-109996190D01*
X136061905Y-109996190D01*
X137490477Y-109472381D02*
X137300000Y-109472381D01*
X137204762Y-109520000D01*
X137157143Y-109567619D01*
X137061905Y-109710476D01*
X137014286Y-109900952D01*
X137014286Y-110281905D01*
X137061905Y-110377143D01*
X137109524Y-110424762D01*
X137204762Y-110472381D01*
X137395239Y-110472381D01*
X137490477Y-110424762D01*
X137538096Y-110377143D01*
X137585715Y-110281905D01*
X137585715Y-110043810D01*
X137538096Y-109948571D01*
X137490477Y-109900952D01*
X137395239Y-109853333D01*
X137204762Y-109853333D01*
X137109524Y-109900952D01*
X137061905Y-109948571D01*
X137014286Y-110043810D01*
X121852381Y-102186666D02*
X121376190Y-102520000D01*
X121852381Y-102758095D02*
X120852381Y-102758095D01*
X120852381Y-102377142D01*
X120900000Y-102281904D01*
X120947619Y-102234285D01*
X121042857Y-102186666D01*
X121185714Y-102186666D01*
X121280952Y-102234285D01*
X121328571Y-102281904D01*
X121376190Y-102377142D01*
X121376190Y-102758095D01*
X120852381Y-101853333D02*
X120852381Y-101186666D01*
X121852381Y-101615238D01*
X141433334Y-99072381D02*
X141100000Y-98596190D01*
X140861905Y-99072381D02*
X140861905Y-98072381D01*
X141242858Y-98072381D01*
X141338096Y-98120000D01*
X141385715Y-98167619D01*
X141433334Y-98262857D01*
X141433334Y-98405714D01*
X141385715Y-98500952D01*
X141338096Y-98548571D01*
X141242858Y-98596190D01*
X140861905Y-98596190D01*
X142004762Y-98500952D02*
X141909524Y-98453333D01*
X141861905Y-98405714D01*
X141814286Y-98310476D01*
X141814286Y-98262857D01*
X141861905Y-98167619D01*
X141909524Y-98120000D01*
X142004762Y-98072381D01*
X142195239Y-98072381D01*
X142290477Y-98120000D01*
X142338096Y-98167619D01*
X142385715Y-98262857D01*
X142385715Y-98310476D01*
X142338096Y-98405714D01*
X142290477Y-98453333D01*
X142195239Y-98500952D01*
X142004762Y-98500952D01*
X141909524Y-98548571D01*
X141861905Y-98596190D01*
X141814286Y-98691429D01*
X141814286Y-98881905D01*
X141861905Y-98977143D01*
X141909524Y-99024762D01*
X142004762Y-99072381D01*
X142195239Y-99072381D01*
X142290477Y-99024762D01*
X142338096Y-98977143D01*
X142385715Y-98881905D01*
X142385715Y-98691429D01*
X142338096Y-98596190D01*
X142290477Y-98548571D01*
X142195239Y-98500952D01*
X127833334Y-103672381D02*
X127500000Y-103196190D01*
X127261905Y-103672381D02*
X127261905Y-102672381D01*
X127642858Y-102672381D01*
X127738096Y-102720000D01*
X127785715Y-102767619D01*
X127833334Y-102862857D01*
X127833334Y-103005714D01*
X127785715Y-103100952D01*
X127738096Y-103148571D01*
X127642858Y-103196190D01*
X127261905Y-103196190D01*
X128309524Y-103672381D02*
X128500000Y-103672381D01*
X128595239Y-103624762D01*
X128642858Y-103577143D01*
X128738096Y-103434286D01*
X128785715Y-103243810D01*
X128785715Y-102862857D01*
X128738096Y-102767619D01*
X128690477Y-102720000D01*
X128595239Y-102672381D01*
X128404762Y-102672381D01*
X128309524Y-102720000D01*
X128261905Y-102767619D01*
X128214286Y-102862857D01*
X128214286Y-103100952D01*
X128261905Y-103196190D01*
X128309524Y-103243810D01*
X128404762Y-103291429D01*
X128595239Y-103291429D01*
X128690477Y-103243810D01*
X128738096Y-103196190D01*
X128785715Y-103100952D01*
X123038095Y-114472381D02*
X123038095Y-115281905D01*
X123085714Y-115377143D01*
X123133333Y-115424762D01*
X123228571Y-115472381D01*
X123419048Y-115472381D01*
X123514286Y-115424762D01*
X123561905Y-115377143D01*
X123609524Y-115281905D01*
X123609524Y-114472381D01*
X124609524Y-115472381D02*
X124038095Y-115472381D01*
X124323809Y-115472381D02*
X124323809Y-114472381D01*
X124228571Y-114615238D01*
X124133333Y-114710476D01*
X124038095Y-114758095D01*
X127633334Y-99872381D02*
X127300000Y-99396190D01*
X127061905Y-99872381D02*
X127061905Y-98872381D01*
X127442858Y-98872381D01*
X127538096Y-98920000D01*
X127585715Y-98967619D01*
X127633334Y-99062857D01*
X127633334Y-99205714D01*
X127585715Y-99300952D01*
X127538096Y-99348571D01*
X127442858Y-99396190D01*
X127061905Y-99396190D01*
X128585715Y-99872381D02*
X128014286Y-99872381D01*
X128300000Y-99872381D02*
X128300000Y-98872381D01*
X128204762Y-99015238D01*
X128109524Y-99110476D01*
X128014286Y-99158095D01*
%LPC*%
D14*
X140750000Y-116840000D03*
D15*
X140750000Y-101600000D03*
D10*
G36*
X135250650Y-97918460D02*
X137949350Y-97918460D01*
X137349910Y-101920180D01*
X135850090Y-101920180D01*
X135250650Y-97918460D01*
X135250650Y-97918460D01*
G37*
G36*
X137949350Y-107721540D02*
X135250650Y-107721540D01*
X135850090Y-103719820D01*
X137349910Y-103719820D01*
X137949350Y-107721540D01*
X137949350Y-107721540D01*
G37*
G36*
X121701540Y-107470650D02*
X121701540Y-110169350D01*
X117699820Y-109569910D01*
X117699820Y-108070090D01*
X121701540Y-107470650D01*
X121701540Y-107470650D01*
G37*
G36*
X111898460Y-110169350D02*
X111898460Y-107470650D01*
X115900180Y-108070090D01*
X115900180Y-109569910D01*
X111898460Y-110169350D01*
X111898460Y-110169350D01*
G37*
D16*
X147150000Y-110020000D03*
X144450000Y-110020000D03*
D10*
G36*
X121701540Y-103470650D02*
X121701540Y-106169350D01*
X117699820Y-105569910D01*
X117699820Y-104070090D01*
X121701540Y-103470650D01*
X121701540Y-103470650D01*
G37*
G36*
X111898460Y-106169350D02*
X111898460Y-103470650D01*
X115900180Y-104070090D01*
X115900180Y-105569910D01*
X111898460Y-106169350D01*
X111898460Y-106169350D01*
G37*
D17*
X123800000Y-103470000D03*
X123800000Y-106170000D03*
D18*
X114800000Y-118300000D03*
D19*
X114800000Y-115760000D03*
X114800000Y-113220000D03*
D18*
X145200000Y-118360000D03*
D19*
X145200000Y-115820000D03*
X145200000Y-113280000D03*
D20*
X130298860Y-105270000D03*
X130298860Y-107170000D03*
X133301140Y-106220000D03*
X142701140Y-107770000D03*
X142701140Y-105870000D03*
X139698860Y-106820000D03*
D21*
X146750000Y-102918860D03*
X144850000Y-102918860D03*
X145800000Y-105921140D03*
D20*
X116301140Y-100570000D03*
X116301140Y-98670000D03*
X113298860Y-99620000D03*
X136098860Y-112670000D03*
X136098860Y-114570000D03*
X139101140Y-113620000D03*
X132898860Y-116470000D03*
X132898860Y-118370000D03*
X135901140Y-117420000D03*
X121501140Y-113370000D03*
X121501140Y-111470000D03*
X118498860Y-112420000D03*
D16*
X126050000Y-112220000D03*
X128750000Y-112220000D03*
X128750000Y-109770000D03*
X126050000Y-109770000D03*
X126250000Y-118020000D03*
X128950000Y-118020000D03*
D17*
X132600000Y-114170000D03*
X132600000Y-111470000D03*
D16*
X141750000Y-110020000D03*
X139050000Y-110020000D03*
D17*
X119600000Y-99070000D03*
X119600000Y-101770000D03*
D16*
X146950000Y-99620000D03*
X144250000Y-99620000D03*
X130250000Y-103220000D03*
X132950000Y-103220000D03*
D20*
X129101140Y-115970000D03*
X129101140Y-114070000D03*
X126098860Y-115020000D03*
D22*
X123850000Y-99620000D03*
X131750000Y-99620000D03*
M02*
