G04 #@! TF.FileFunction,Soldermask,Top*
%FSLAX46Y46*%
G04 Gerber Fmt 4.6, Leading zero omitted, Abs format (unit mm)*
G04 Created by KiCad (PCBNEW 4.0.2-stable) date 9/21/2016 2:39:29 AM*
%MOMM*%
G01*
G04 APERTURE LIST*
%ADD10C,0.100000*%
%ADD11C,3.400000*%
%ADD12R,3.400000X3.400000*%
%ADD13R,1.900000X1.700000*%
%ADD14R,1.700000X1.900000*%
%ADD15R,2.432000X2.127200*%
%ADD16O,2.432000X2.127200*%
%ADD17R,2.200860X1.200100*%
%ADD18R,1.200100X2.200860*%
%ADD19R,3.100000X3.600000*%
G04 APERTURE END LIST*
D10*
D11*
X140750000Y-116840000D03*
D12*
X140750000Y-101600000D03*
D10*
G36*
X135250650Y-97918460D02*
X137949350Y-97918460D01*
X137349910Y-101920180D01*
X135850090Y-101920180D01*
X135250650Y-97918460D01*
X135250650Y-97918460D01*
G37*
G36*
X137949350Y-107721540D02*
X135250650Y-107721540D01*
X135850090Y-103719820D01*
X137349910Y-103719820D01*
X137949350Y-107721540D01*
X137949350Y-107721540D01*
G37*
G36*
X121701540Y-107470650D02*
X121701540Y-110169350D01*
X117699820Y-109569910D01*
X117699820Y-108070090D01*
X121701540Y-107470650D01*
X121701540Y-107470650D01*
G37*
G36*
X111898460Y-110169350D02*
X111898460Y-107470650D01*
X115900180Y-108070090D01*
X115900180Y-109569910D01*
X111898460Y-110169350D01*
X111898460Y-110169350D01*
G37*
D13*
X147150000Y-110020000D03*
X144450000Y-110020000D03*
D10*
G36*
X121701540Y-103470650D02*
X121701540Y-106169350D01*
X117699820Y-105569910D01*
X117699820Y-104070090D01*
X121701540Y-103470650D01*
X121701540Y-103470650D01*
G37*
G36*
X111898460Y-106169350D02*
X111898460Y-103470650D01*
X115900180Y-104070090D01*
X115900180Y-105569910D01*
X111898460Y-106169350D01*
X111898460Y-106169350D01*
G37*
D14*
X123800000Y-103470000D03*
X123800000Y-106170000D03*
D15*
X114800000Y-118300000D03*
D16*
X114800000Y-115760000D03*
X114800000Y-113220000D03*
D15*
X145200000Y-118360000D03*
D16*
X145200000Y-115820000D03*
X145200000Y-113280000D03*
D17*
X130298860Y-105270000D03*
X130298860Y-107170000D03*
X133301140Y-106220000D03*
X142701140Y-107770000D03*
X142701140Y-105870000D03*
X139698860Y-106820000D03*
D18*
X146750000Y-102918860D03*
X144850000Y-102918860D03*
X145800000Y-105921140D03*
D17*
X116301140Y-100570000D03*
X116301140Y-98670000D03*
X113298860Y-99620000D03*
X136098860Y-112670000D03*
X136098860Y-114570000D03*
X139101140Y-113620000D03*
X132898860Y-116470000D03*
X132898860Y-118370000D03*
X135901140Y-117420000D03*
X121501140Y-113370000D03*
X121501140Y-111470000D03*
X118498860Y-112420000D03*
D13*
X126050000Y-112220000D03*
X128750000Y-112220000D03*
X128750000Y-109770000D03*
X126050000Y-109770000D03*
X126250000Y-118020000D03*
X128950000Y-118020000D03*
D14*
X132600000Y-114170000D03*
X132600000Y-111470000D03*
D13*
X141750000Y-110020000D03*
X139050000Y-110020000D03*
D14*
X119600000Y-99070000D03*
X119600000Y-101770000D03*
D13*
X146950000Y-99620000D03*
X144250000Y-99620000D03*
X130250000Y-103220000D03*
X132950000Y-103220000D03*
D17*
X129101140Y-115970000D03*
X129101140Y-114070000D03*
X126098860Y-115020000D03*
D19*
X123850000Y-99620000D03*
X131750000Y-99620000D03*
M02*
